<?xml version="1.0" standalone="no"?>
<!DOCTYPE svg PUBLIC "-//W3C//DTD SVG 1.1//EN"
"http://www.w3.org/Graphics/SVG/1.1/DTD/svg11.dtd">

<svg width="339" height="364" view_box="0 0 339 364"
xmlns="http://www.w3.org/2000/svg"
xmlns:link="http://www.w3.org/1999/xlink">\n\n<desc>Généré par Mocodo 2.3.7 le Mon, 11 Jan 2021 06:51:52</desc>

<rect id="frame" x="0" y="0" width="339" height="364" fill="#f5f5f5" stroke="none" stroke-width="0"/>

<!-- Association CAN LIKE -->
<path d="M162 195 C 204.666666667 280.0 204.666666667 325.0 162 330" fill="none" stroke="#35978f" stroke-width="2"/>
<text x="166.0" y="297" fill="#8c510a" font-family="Verdana" font-size="12">0,N</text>
<path d="M162 195 C 119.333333333 280.0 119.333333333 325.0 162 330" fill="none" stroke="#35978f" stroke-width="2"/>
<text x="136.0" y="297" fill="#8c510a" font-family="Verdana" font-size="12">0,N</text>
<g id="association-CAN LIKE">
	<path d="M 184 305 a 14 14 90 0 1 14 14 V 330 h -72 V 319 a 14 14 90 0 1 14 -14" fill="#80cdc1" stroke="#80cdc1" stroke-width="0"/>
	<path d="M 198 330.0 v 11 a 14 14 90 0 1 -14 14 H 140 a 14 14 90 0 1 -14 -14 V 330.0 H 72" fill="#c7eae5" stroke="#c7eae5" stroke-width="0"/>
	<rect x="126" y="305" width="72" height="50" fill="none" rx="14" stroke="#35978f" stroke-width="2"/>
	<line x1="126" y1="330" x2="198" y2="330" stroke="#35978f" stroke-width="1"/>
	<text x="133" y="322.7" fill="#000000" font-family="Verdana" font-size="12">CAN LIKE</text>
</g>

<!-- Association BELONGS TO -->
<line x1="282" y1="60" x2="282" y2="195" stroke="#35978f" stroke-width="2"/>
<text x="287.0" y="128" fill="#8c510a" font-family="Verdana" font-size="12">0,N</text>
<line x1="162" y1="195" x2="282" y2="195" stroke="#35978f" stroke-width="2"/>
<text x="207" y="212.0" fill="#8c510a" font-family="Verdana" font-size="12">1,1</text>
<g id="association-BELONGS TO">
	<path d="M 316 170 a 14 14 90 0 1 14 14 V 195 h -96 V 184 a 14 14 90 0 1 14 -14" fill="#80cdc1" stroke="#80cdc1" stroke-width="0"/>
	<path d="M 330 195.0 v 11 a 14 14 90 0 1 -14 14 H 248 a 14 14 90 0 1 -14 -14 V 195.0 H 96" fill="#c7eae5" stroke="#c7eae5" stroke-width="0"/>
	<rect x="234" y="170" width="96" height="50" fill="none" rx="14" stroke="#35978f" stroke-width="2"/>
	<line x1="234" y1="195" x2="330" y2="195" stroke="#35978f" stroke-width="1"/>
	<text x="241" y="187.7" fill="#000000" font-family="Verdana" font-size="12">BELONGS TO</text>
</g>

<!-- Association HAVE -->
<line x1="49" y1="60" x2="49" y2="195" stroke="#35978f" stroke-width="2"/>
<text x="54.0" y="128" fill="#8c510a" font-family="Verdana" font-size="12">0,N</text>
<line x1="162" y1="195" x2="49" y2="195" stroke="#35978f" stroke-width="2"/>
<text x="95" y="212.0" fill="#8c510a" font-family="Verdana" font-size="12">0,N</text>
<g id="association-HAVE">
	<path d="M 59 170 a 14 14 90 0 1 14 14 V 195 h -48 V 184 a 14 14 90 0 1 14 -14" fill="#80cdc1" stroke="#80cdc1" stroke-width="0"/>
	<path d="M 73 195.0 v 11 a 14 14 90 0 1 -14 14 H 39 a 14 14 90 0 1 -14 -14 V 195.0 H 48" fill="#c7eae5" stroke="#c7eae5" stroke-width="0"/>
	<rect x="25" y="170" width="48" height="50" fill="none" rx="14" stroke="#35978f" stroke-width="2"/>
	<line x1="25" y1="195" x2="73" y2="195" stroke="#35978f" stroke-width="1"/>
	<text x="32" y="187.7" fill="#000000" font-family="Verdana" font-size="12">HAVE</text>
</g>

<!-- Association RESEARCH -->
<line x1="162" y1="195" x2="162" y2="60" stroke="#35978f" stroke-width="2"/>
<text x="167.0" y="102" fill="#8c510a" font-family="Verdana" font-size="12">0,N</text>
<line x1="282" y1="60" x2="162" y2="60" stroke="#35978f" stroke-width="2"/>
<text x="215" y="77.0" fill="#8c510a" font-family="Verdana" font-size="12">0,N</text>
<line x1="49" y1="60" x2="162" y2="60" stroke="#35978f" stroke-width="2"/>
<text x="94" y="77.0" fill="#8c510a" font-family="Verdana" font-size="12">0,N</text>
<g id="association-RESEARCH">
	<path d="M 189 35 a 14 14 90 0 1 14 14 V 60 h -82 V 49 a 14 14 90 0 1 14 -14" fill="#80cdc1" stroke="#80cdc1" stroke-width="0"/>
	<path d="M 203 60.0 v 11 a 14 14 90 0 1 -14 14 H 135 a 14 14 90 0 1 -14 -14 V 60.0 H 82" fill="#c7eae5" stroke="#c7eae5" stroke-width="0"/>
	<rect x="121" y="35" width="82" height="50" fill="none" rx="14" stroke="#35978f" stroke-width="2"/>
	<line x1="121" y1="60" x2="203" y2="60" stroke="#35978f" stroke-width="1"/>
	<text x="128" y="52.7" fill="#000000" font-family="Verdana" font-size="12">RESEARCH</text>
</g>

<!-- Entity GENDER -->
<g id="entity-GENDER">
	<g id="frame-GENDER">
		<rect x="242" y="9" width="80" height="25" fill="#dfc27d" stroke="#dfc27d" stroke-width="0"/>
		<rect x="242" y="34.0" width="80" height="77" fill="#f6e8c3" stroke="#f6e8c3" stroke-width="0"/>
		<rect x="242" y="9" width="80" height="102" fill="none" stroke="#bf812d" stroke-width="2"/>
		<line x1="242" y1="34" x2="322" y2="34" stroke="#bf812d" stroke-width="1"/>
	</g>
	<text x="256" y="26.7" fill="#000000" font-family="Verdana" font-size="12">GENDER</text>
	<text x="247" y="51.7" fill="#000000" font-family="Verdana" font-size="12">GenderId</text>
	<line x1="247" y1="54" x2="304" y2="54" stroke="#000000" stroke-width="1"/>
	<text x="247" y="68.8" fill="#000000" font-family="Verdana" font-size="12">Name</text>
	<text x="247" y="85.8" fill="#000000" font-family="Verdana" font-size="12">Description</text>
	<text x="247" y="102.8" fill="#000000" font-family="Verdana" font-size="12">Image</text>
</g>

<!-- Entity FLAW -->
<g id="entity-FLAW">
	<g id="frame-FLAW">
		<rect x="9" y="9" width="80" height="25" fill="#dfc27d" stroke="#dfc27d" stroke-width="0"/>
		<rect x="9" y="34.0" width="80" height="77" fill="#f6e8c3" stroke="#f6e8c3" stroke-width="0"/>
		<rect x="9" y="9" width="80" height="102" fill="none" stroke="#bf812d" stroke-width="2"/>
		<line x1="9" y1="34" x2="89" y2="34" stroke="#bf812d" stroke-width="1"/>
	</g>
	<text x="31" y="26.7" fill="#000000" font-family="Verdana" font-size="12">FLAW</text>
	<text x="14" y="51.7" fill="#000000" font-family="Verdana" font-size="12">FlawId</text>
	<line x1="14" y1="54" x2="55" y2="54" stroke="#000000" stroke-width="1"/>
	<text x="14" y="68.8" fill="#000000" font-family="Verdana" font-size="12">Name</text>
	<text x="14" y="85.8" fill="#000000" font-family="Verdana" font-size="12">Description</text>
	<text x="14" y="102.8" fill="#000000" font-family="Verdana" font-size="12">Image</text>
</g>

<!-- Entity USER -->
<g id="entity-USER">
	<g id="frame-USER">
		<rect x="122" y="110" width="80" height="25" fill="#dfc27d" stroke="#dfc27d" stroke-width="0"/>
		<rect x="122" y="135.0" width="80" height="145" fill="#f6e8c3" stroke="#f6e8c3" stroke-width="0"/>
		<rect x="122" y="110" width="80" height="170" fill="none" stroke="#bf812d" stroke-width="2"/>
		<line x1="122" y1="135" x2="202" y2="135" stroke="#bf812d" stroke-width="1"/>
	</g>
	<text x="145" y="127.7" fill="#000000" font-family="Verdana" font-size="12">USER</text>
	<text x="127" y="152.7" fill="#000000" font-family="Verdana" font-size="12">UserId</text>
	<line x1="127" y1="155" x2="168" y2="155" stroke="#000000" stroke-width="1"/>
	<text x="127" y="169.7" fill="#000000" font-family="Verdana" font-size="12">Username</text>
	<text x="127" y="186.7" fill="#000000" font-family="Verdana" font-size="12">Email</text>
	<text x="127" y="203.8" fill="#000000" font-family="Verdana" font-size="12">Firstname</text>
	<text x="127" y="220.8" fill="#000000" font-family="Verdana" font-size="12">Lastname</text>
	<text x="127" y="237.8" fill="#000000" font-family="Verdana" font-size="12">Age</text>
	<text x="127" y="254.8" fill="#000000" font-family="Verdana" font-size="12">Description</text>
	<text x="127" y="271.8" fill="#000000" font-family="Verdana" font-size="12">UserImage</text>
</g>
</svg>