<?xml version="1.0" standalone="no"?>
<!DOCTYPE svg PUBLIC "-//W3C//DTD SVG 1.1//EN"
"http://www.w3.org/Graphics/SVG/1.1/DTD/svg11.dtd">

<svg width="524" height="490" view_box="0 0 524 490"
xmlns="http://www.w3.org/2000/svg"
xmlns:link="http://www.w3.org/1999/xlink">\n\n<desc>Généré par Mocodo 2.3.7 le Mon, 11 Jan 2021 07:40:10</desc>

<rect id="frame" x="0" y="0" width="524" height="490" fill="#ffffbf" stroke="none" stroke-width="0"/>

<!-- Entity FLAW -->
<g id="entity-FLAW">
	<g id="frame-FLAW">
		<rect x="394" y="363" width="78" height="25" fill="#abdda4" stroke="#abdda4" stroke-width="0"/>
		<rect x="394" y="388.0" width="78" height="93" fill="#e6f598" stroke="#e6f598" stroke-width="0"/>
		<rect x="394" y="363" width="78" height="118" fill="none" stroke="#66c2a5" stroke-width="2"/>
		<line x1="394" y1="388" x2="472" y2="388" stroke="#66c2a5" stroke-width="1"/>
	</g>
	<text x="415" y="380.7" fill="#000000" font-family="Verdana" font-size="12">FLAW</text>
	<text x="399" y="405.7" fill="#000000" font-family="Verdana" font-size="12">id</text>
	<line x1="399" y1="408" x2="411" y2="408" stroke="#000000" stroke-width="1"/>
	<text x="399" y="422.8" fill="#000000" font-family="Verdana" font-size="12">name</text>
	<text x="399" y="439.8" fill="#000000" font-family="Verdana" font-size="12">description</text>
	<text x="399" y="456.8" fill="#000000" font-family="Verdana" font-size="12">image</text>
</g>

<!-- Entity CAN LIKE -->
<g id="entity-CAN LIKE">
	<g id="frame-CAN LIKE">
		<rect x="46" y="211" width="68" height="25" fill="#abdda4" stroke="#abdda4" stroke-width="0"/>
		<rect x="46" y="236.0" width="68" height="43" fill="#e6f598" stroke="#e6f598" stroke-width="0"/>
		<rect x="46" y="211" width="68" height="68" fill="none" stroke="#66c2a5" stroke-width="2"/>
		<line x1="46" y1="236" x2="114" y2="236" stroke="#66c2a5" stroke-width="1"/>
	</g>
	<text x="51" y="228.7" fill="#000000" font-family="Verdana" font-size="12">CAN LIKE</text>
	<text x="51" y="253.8" fill="#000000" font-family="Verdana" font-size="12">#user_id</text>
	<line x1="51" y1="256" x2="106" y2="256" stroke="#000000" stroke-width="1"/>
	<text x="51" y="270.8" fill="#000000" font-family="Verdana" font-size="12">#user_id</text>
	<line x1="51" y1="273" x2="106" y2="273" stroke="#000000" stroke-width="1"/>
</g>

<!-- Entity GENDER -->
<g id="entity-GENDER">
	<g id="frame-GENDER">
		<rect x="41" y="9" width="78" height="25" fill="#abdda4" stroke="#abdda4" stroke-width="0"/>
		<rect x="41" y="34.0" width="78" height="93" fill="#e6f598" stroke="#e6f598" stroke-width="0"/>
		<rect x="41" y="9" width="78" height="118" fill="none" stroke="#66c2a5" stroke-width="2"/>
		<line x1="41" y1="34" x2="119" y2="34" stroke="#66c2a5" stroke-width="1"/>
	</g>
	<text x="54" y="26.7" fill="#000000" font-family="Verdana" font-size="12">GENDER</text>
	<text x="46" y="51.7" fill="#000000" font-family="Verdana" font-size="12">id</text>
	<line x1="46" y1="54" x2="58" y2="54" stroke="#000000" stroke-width="1"/>
	<text x="46" y="68.8" fill="#000000" font-family="Verdana" font-size="12">name</text>
	<text x="46" y="85.8" fill="#000000" font-family="Verdana" font-size="12">description</text>
	<text x="46" y="102.8" fill="#000000" font-family="Verdana" font-size="12">image</text>
</g>

<!-- Entity RESEARCH_GENDER -->
<g id="entity-RESEARCH_GENDER">
	<g id="frame-RESEARCH_GENDER">
		<rect x="183" y="26" width="136" height="25" fill="#abdda4" stroke="#abdda4" stroke-width="0"/>
		<rect x="183" y="51.0" width="136" height="59" fill="#e6f598" stroke="#e6f598" stroke-width="0"/>
		<rect x="183" y="26" width="136" height="84" fill="none" stroke="#66c2a5" stroke-width="2"/>
		<line x1="183" y1="51" x2="319" y2="51" stroke="#66c2a5" stroke-width="1"/>
	</g>
	<text x="188" y="43.7" fill="#000000" font-family="Verdana" font-size="12">RESEARCH_GENDER</text>
	<text x="188" y="68.8" fill="#000000" font-family="Verdana" font-size="12">#user_id</text>
	<line x1="188" y1="71" x2="243" y2="71" stroke="#000000" stroke-width="1"/>
	<text x="188" y="85.8" fill="#000000" font-family="Verdana" font-size="12">#gender_id</text>
	<line x1="188" y1="88" x2="259" y2="88" stroke="#000000" stroke-width="1"/>
</g>

<!-- Entity USER -->
<g id="entity-USER">
	<g id="frame-USER">
		<rect x="210" y="135" width="82" height="25" fill="#abdda4" stroke="#abdda4" stroke-width="0"/>
		<rect x="210" y="160.0" width="82" height="195" fill="#e6f598" stroke="#e6f598" stroke-width="0"/>
		<rect x="210" y="135" width="82" height="220" fill="none" stroke="#66c2a5" stroke-width="2"/>
		<line x1="210" y1="160" x2="292" y2="160" stroke="#66c2a5" stroke-width="1"/>
	</g>
	<text x="234" y="152.7" fill="#000000" font-family="Verdana" font-size="12">USER</text>
	<text x="215" y="177.7" fill="#000000" font-family="Verdana" font-size="12">id</text>
	<line x1="215" y1="180" x2="227" y2="180" stroke="#000000" stroke-width="1"/>
	<text x="215" y="194.7" fill="#000000" font-family="Verdana" font-size="12">username</text>
	<text x="215" y="211.7" fill="#000000" font-family="Verdana" font-size="12">email</text>
	<text x="215" y="228.7" fill="#000000" font-family="Verdana" font-size="12">firstname</text>
	<text x="215" y="245.8" fill="#000000" font-family="Verdana" font-size="12">lastname</text>
	<text x="215" y="262.8" fill="#000000" font-family="Verdana" font-size="12">age</text>
	<text x="215" y="279.8" fill="#000000" font-family="Verdana" font-size="12">description</text>
	<text x="215" y="296.8" fill="#000000" font-family="Verdana" font-size="12">userImage</text>
	<text x="215" y="313.8" fill="#000000" font-family="Verdana" font-size="12">created_at</text>
	<text x="215" y="330.8" fill="#000000" font-family="Verdana" font-size="12">updated_at</text>
	<text x="215" y="347.8" fill="#000000" font-family="Verdana" font-size="12">#gender_id</text>
</g>

<!-- Entity HAVE -->
<g id="entity-HAVE">
	<g id="frame-HAVE">
		<rect x="383" y="211" width="100" height="25" fill="#abdda4" stroke="#abdda4" stroke-width="0"/>
		<rect x="383" y="236.0" width="100" height="43" fill="#e6f598" stroke="#e6f598" stroke-width="0"/>
		<rect x="383" y="211" width="100" height="68" fill="none" stroke="#66c2a5" stroke-width="2"/>
		<line x1="383" y1="236" x2="483" y2="236" stroke="#66c2a5" stroke-width="1"/>
	</g>
	<text x="416" y="228.7" fill="#000000" font-family="Verdana" font-size="12">HAVE</text>
	<text x="388" y="253.8" fill="#000000" font-family="Verdana" font-size="12">#flaw_id</text>
	<line x1="388" y1="256" x2="442" y2="256" stroke="#000000" stroke-width="1"/>
	<text x="388" y="270.8" fill="#000000" font-family="Verdana" font-size="12">#username_id</text>
	<line x1="388" y1="273" x2="477" y2="273" stroke="#000000" stroke-width="1"/>
</g>

<!-- Entity RESEARCH_FLAW -->
<g id="entity-RESEARCH_FLAW">
	<g id="frame-RESEARCH_FLAW">
		<rect x="192" y="380" width="118" height="25" fill="#abdda4" stroke="#abdda4" stroke-width="0"/>
		<rect x="192" y="405.0" width="118" height="59" fill="#e6f598" stroke="#e6f598" stroke-width="0"/>
		<rect x="192" y="380" width="118" height="84" fill="none" stroke="#66c2a5" stroke-width="2"/>
		<line x1="192" y1="405" x2="310" y2="405" stroke="#66c2a5" stroke-width="1"/>
	</g>
	<text x="197" y="397.7" fill="#000000" font-family="Verdana" font-size="12">RESEARCH_FLAW</text>
	<text x="197" y="422.8" fill="#000000" font-family="Verdana" font-size="12">#user_id</text>
	<line x1="197" y1="425" x2="252" y2="425" stroke="#000000" stroke-width="1"/>
	<text x="197" y="439.8" fill="#000000" font-family="Verdana" font-size="12">#flaw_id</text>
	<line x1="197" y1="442" x2="251" y2="442" stroke="#000000" stroke-width="1"/>
</g>

<!-- Link from "id" (CAN LIKE) to "id" (USER) -->
<path d="M114 249.5 C 162.0 211.5 146.0 173.5 210 173.5" fill="none" stroke="#f46d43" stroke-width="2"/>
<path d="M 210 173.5 L 198.0 179.5 L 202.0 173.5 L 198.0 167.5 Z" fill="#f46d43" stroke-width="0"/>
<circle cx="114" cy="249.5" r="2" stroke="#f46d43" stroke-width="2" fill="#f46d43"/>

<!-- Link from "id" (CAN LIKE) to "id" (USER) -->
<path d="M114 266.5 C 162.0 220.0 146.0 173.5 210 173.5" fill="none" stroke="#f46d43" stroke-width="2"/>
<path d="M 210 173.5 L 198.0 179.5 L 202.0 173.5 L 198.0 167.5 Z" fill="#f46d43" stroke-width="0"/>
<circle cx="114" cy="266.5" r="2" stroke="#f46d43" stroke-width="2" fill="#f46d43"/>

<!-- Link from "id" (RESEARCH_GENDER) to "id" (USER) -->
<path d="M319 64.5 C 373 119.0 346 173.5 292 173.5" fill="none" stroke="#f46d43" stroke-width="2"/>
<path d="M 292 173.5 L 304.0 167.5 L 300.0 173.5 L 304.0 179.5 Z" fill="#f46d43" stroke-width="0"/>
<circle cx="319" cy="64.5" r="2" stroke="#f46d43" stroke-width="2" fill="#f46d43"/>

<!-- Link from "id" (RESEARCH_GENDER) to "id" (GENDER) -->
<path d="M183 81.5 C 151.0 64.5 161.666666667 47.5 119 47.5" fill="none" stroke="#f46d43" stroke-width="2"/>
<path d="M 119 47.5 L 131.0 41.5 L 127.0 47.5 L 131.0 53.5 Z" fill="#f46d43" stroke-width="0"/>
<circle cx="183" cy="81.5" r="2" stroke="#f46d43" stroke-width="2" fill="#f46d43"/>

<!-- Link from "id" (USER) to "id" (GENDER) -->
<path d="M210 343.5 C 164.5 195.5 179.666666667 47.5 119 47.5" fill="none" stroke="#f46d43" stroke-width="2"/>
<path d="M 119 47.5 L 131.0 41.5 L 127.0 47.5 L 131.0 53.5 Z" fill="#f46d43" stroke-width="0"/>
<circle cx="210" cy="343.5" r="2" stroke="#f46d43" stroke-width="2" fill="#f46d43"/>

<!-- Link from "id" (HAVE) to "id" (FLAW) -->
<path d="M483 249.5 C 537 325.5 526 401.5 472 401.5" fill="none" stroke="#f46d43" stroke-width="2"/>
<path d="M 472 401.5 L 484.0 395.5 L 480.0 401.5 L 484.0 407.5 Z" fill="#f46d43" stroke-width="0"/>
<circle cx="483" cy="249.5" r="2" stroke="#f46d43" stroke-width="2" fill="#f46d43"/>

<!-- Link from "id" (HAVE) to "id" (USER) -->
<path d="M383 266.5 C 337.5 220.0 352.666666667 173.5 292 173.5" fill="none" stroke="#f46d43" stroke-width="2"/>
<path d="M 292 173.5 L 304.0 167.5 L 300.0 173.5 L 304.0 179.5 Z" fill="#f46d43" stroke-width="0"/>
<circle cx="383" cy="266.5" r="2" stroke="#f46d43" stroke-width="2" fill="#f46d43"/>

<!-- Link from "id" (RESEARCH_FLAW) to "id" (USER) -->
<path d="M310 418.5 C 364 296.0 346 173.5 292 173.5" fill="none" stroke="#f46d43" stroke-width="2"/>
<path d="M 292 173.5 L 304.0 167.5 L 300.0 173.5 L 304.0 179.5 Z" fill="#f46d43" stroke-width="0"/>
<circle cx="310" cy="418.5" r="2" stroke="#f46d43" stroke-width="2" fill="#f46d43"/>

<!-- Link from "id" (RESEARCH_FLAW) to "id" (FLAW) -->
<path d="M310 435.5 C 352.0 418.5 338.0 401.5 394 401.5" fill="none" stroke="#f46d43" stroke-width="2"/>
<path d="M 394 401.5 L 382.0 407.5 L 386.0 401.5 L 382.0 395.5 Z" fill="#f46d43" stroke-width="0"/>
<circle cx="310" cy="435.5" r="2" stroke="#f46d43" stroke-width="2" fill="#f46d43"/>
</svg>