<?xml version="1.0" standalone="no"?>
<!DOCTYPE svg PUBLIC "-//W3C//DTD SVG 1.1//EN"
"http://www.w3.org/Graphics/SVG/1.1/DTD/svg11.dtd">

<svg width="472" height="474" view_box="0 0 472 474"
xmlns="http://www.w3.org/2000/svg"
xmlns:link="http://www.w3.org/1999/xlink">\n\n<desc>Généré par Mocodo 2.3.7 le Mon, 11 Jan 2021 06:09:08</desc>

<rect id="frame" x="0" y="0" width="472" height="474" fill="#f5f5f5" stroke="none" stroke-width="0"/>

<!-- Entity FLAW -->
<g id="entity-FLAW">
	<g id="frame-FLAW">
		<rect x="51" y="9" width="80" height="25" fill="#dfc27d" stroke="#dfc27d" stroke-width="0"/>
		<rect x="51" y="34.0" width="80" height="127" fill="#f6e8c3" stroke="#f6e8c3" stroke-width="0"/>
		<rect x="51" y="9" width="80" height="152" fill="none" stroke="#bf812d" stroke-width="2"/>
		<line x1="51" y1="34" x2="131" y2="34" stroke="#bf812d" stroke-width="1"/>
	</g>
	<text x="73" y="26.7" fill="#000000" font-family="Verdana" font-size="12">FLAW</text>
	<text x="56" y="51.7" fill="#000000" font-family="Verdana" font-size="12">id</text>
	<line x1="56" y1="54" x2="68" y2="54" stroke="#000000" stroke-width="1"/>
	<text x="56" y="68.7" fill="#000000" font-family="Verdana" font-size="12">name</text>
	<text x="56" y="85.8" fill="#000000" font-family="Verdana" font-size="12">description</text>
	<text x="56" y="102.8" fill="#000000" font-family="Verdana" font-size="12">image</text>
	<text x="56" y="119.8" fill="#000000" font-family="Verdana" font-size="12">created_at</text>
	<text x="56" y="136.8" fill="#000000" font-family="Verdana" font-size="12">updated_at</text>
</g>

<!-- Entity CAN LIKE -->
<g id="entity-CAN LIKE">
	<g id="frame-CAN LIKE">
		<rect x="212" y="397" width="68" height="25" fill="#dfc27d" stroke="#dfc27d" stroke-width="0"/>
		<rect x="212" y="422.0" width="68" height="43" fill="#f6e8c3" stroke="#f6e8c3" stroke-width="0"/>
		<rect x="212" y="397" width="68" height="68" fill="none" stroke="#bf812d" stroke-width="2"/>
		<line x1="212" y1="422" x2="280" y2="422" stroke="#bf812d" stroke-width="1"/>
	</g>
	<text x="217" y="414.7" fill="#000000" font-family="Verdana" font-size="12">CAN LIKE</text>
	<text x="217" y="439.8" fill="#000000" font-family="Verdana" font-size="12">#user_id</text>
	<line x1="217" y1="442" x2="272" y2="442" stroke="#000000" stroke-width="1"/>
	<text x="217" y="456.8" fill="#000000" font-family="Verdana" font-size="12">#user_id</text>
	<line x1="217" y1="459" x2="272" y2="459" stroke="#000000" stroke-width="1"/>
</g>

<!-- Entity GENDER -->
<g id="entity-GENDER">
	<g id="frame-GENDER">
		<rect x="351" y="17" width="80" height="25" fill="#dfc27d" stroke="#dfc27d" stroke-width="0"/>
		<rect x="351" y="42.0" width="80" height="111" fill="#f6e8c3" stroke="#f6e8c3" stroke-width="0"/>
		<rect x="351" y="17" width="80" height="136" fill="none" stroke="#bf812d" stroke-width="2"/>
		<line x1="351" y1="42" x2="431" y2="42" stroke="#bf812d" stroke-width="1"/>
	</g>
	<text x="365" y="34.7" fill="#000000" font-family="Verdana" font-size="12">GENDER</text>
	<text x="356" y="59.7" fill="#000000" font-family="Verdana" font-size="12">id</text>
	<line x1="356" y1="62" x2="368" y2="62" stroke="#000000" stroke-width="1"/>
	<text x="356" y="76.7" fill="#000000" font-family="Verdana" font-size="12">name</text>
	<text x="356" y="93.8" fill="#000000" font-family="Verdana" font-size="12">description</text>
	<text x="356" y="110.8" fill="#000000" font-family="Verdana" font-size="12">created_at</text>
	<text x="356" y="127.8" fill="#000000" font-family="Verdana" font-size="12">updated_at</text>
</g>

<!-- Entity RESEARCH -->
<g id="entity-RESEARCH">
	<g id="frame-RESEARCH">
		<rect x="205" y="43" width="82" height="25" fill="#dfc27d" stroke="#dfc27d" stroke-width="0"/>
		<rect x="205" y="68.0" width="82" height="59" fill="#f6e8c3" stroke="#f6e8c3" stroke-width="0"/>
		<rect x="205" y="43" width="82" height="84" fill="none" stroke="#bf812d" stroke-width="2"/>
		<line x1="205" y1="68" x2="287" y2="68" stroke="#bf812d" stroke-width="1"/>
	</g>
	<text x="212" y="60.7" fill="#000000" font-family="Verdana" font-size="12">RESEARCH</text>
	<text x="210" y="85.8" fill="#000000" font-family="Verdana" font-size="12">#user_id</text>
	<line x1="210" y1="88" x2="265" y2="88" stroke="#000000" stroke-width="1"/>
	<text x="210" y="102.8" fill="#000000" font-family="Verdana" font-size="12">#gender_id</text>
	<line x1="210" y1="105" x2="281" y2="105" stroke="#000000" stroke-width="1"/>
	<text x="210" y="119.8" fill="#000000" font-family="Verdana" font-size="12">#flaw_id</text>
	<line x1="210" y1="122" x2="264" y2="122" stroke="#000000" stroke-width="1"/>
</g>

<!-- Entity USER -->
<g id="entity-USER">
	<g id="frame-USER">
		<rect x="205" y="152" width="82" height="25" fill="#dfc27d" stroke="#dfc27d" stroke-width="0"/>
		<rect x="205" y="177.0" width="82" height="195" fill="#f6e8c3" stroke="#f6e8c3" stroke-width="0"/>
		<rect x="205" y="152" width="82" height="220" fill="none" stroke="#bf812d" stroke-width="2"/>
		<line x1="205" y1="177" x2="287" y2="177" stroke="#bf812d" stroke-width="1"/>
	</g>
	<text x="229" y="169.7" fill="#000000" font-family="Verdana" font-size="12">USER</text>
	<text x="210" y="194.7" fill="#000000" font-family="Verdana" font-size="12">id</text>
	<line x1="210" y1="197" x2="222" y2="197" stroke="#000000" stroke-width="1"/>
	<text x="210" y="211.7" fill="#000000" font-family="Verdana" font-size="12">username</text>
	<text x="210" y="228.7" fill="#000000" font-family="Verdana" font-size="12">email</text>
	<text x="210" y="245.7" fill="#000000" font-family="Verdana" font-size="12">firstname</text>
	<text x="210" y="262.8" fill="#000000" font-family="Verdana" font-size="12">lastname</text>
	<text x="210" y="279.8" fill="#000000" font-family="Verdana" font-size="12">age</text>
	<text x="210" y="296.8" fill="#000000" font-family="Verdana" font-size="12">description</text>
	<text x="210" y="313.8" fill="#000000" font-family="Verdana" font-size="12">userImage</text>
	<text x="210" y="330.8" fill="#000000" font-family="Verdana" font-size="12">created_at</text>
	<text x="210" y="347.8" fill="#000000" font-family="Verdana" font-size="12">updated_at</text>
	<text x="210" y="364.8" fill="#000000" font-family="Verdana" font-size="12">#gender_id</text>
</g>

<!-- Entity HAVE -->
<g id="entity-HAVE">
	<g id="frame-HAVE">
		<rect x="41" y="228" width="100" height="25" fill="#dfc27d" stroke="#dfc27d" stroke-width="0"/>
		<rect x="41" y="253.0" width="100" height="43" fill="#f6e8c3" stroke="#f6e8c3" stroke-width="0"/>
		<rect x="41" y="228" width="100" height="68" fill="none" stroke="#bf812d" stroke-width="2"/>
		<line x1="41" y1="253" x2="141" y2="253" stroke="#bf812d" stroke-width="1"/>
	</g>
	<text x="74" y="245.7" fill="#000000" font-family="Verdana" font-size="12">HAVE</text>
	<text x="46" y="270.8" fill="#000000" font-family="Verdana" font-size="12">#flaw_id</text>
	<line x1="46" y1="273" x2="100" y2="273" stroke="#000000" stroke-width="1"/>
	<text x="46" y="287.8" fill="#000000" font-family="Verdana" font-size="12">#username_id</text>
	<line x1="46" y1="290" x2="135" y2="290" stroke="#000000" stroke-width="1"/>
</g>

<!-- Link from "id" (CAN LIKE) to "id" (USER) -->
<path d="M280 435.5 C 334 313.0 341 190.5 287 190.5" fill="none" stroke="#35978f" stroke-width="2"/>
<path d="M 287 190.5 L 299.0 184.5 L 295.0 190.5 L 299.0 196.5 Z" fill="#35978f" stroke-width="0"/>
<circle cx="280" cy="435.5" r="2" stroke="#35978f" stroke-width="2" fill="#35978f"/>

<!-- Link from "id" (CAN LIKE) to "id" (USER) -->
<path d="M212 452.5 C 158 321.5 151 190.5 205 190.5" fill="none" stroke="#35978f" stroke-width="2"/>
<path d="M 205 190.5 L 193.0 196.5 L 197.0 190.5 L 193.0 184.5 Z" fill="#35978f" stroke-width="0"/>
<circle cx="212" cy="452.5" r="2" stroke="#35978f" stroke-width="2" fill="#35978f"/>

<!-- Link from "id" (RESEARCH) to "id" (USER) -->
<path d="M287 81.5 C 341 136.0 341 190.5 287 190.5" fill="none" stroke="#35978f" stroke-width="2"/>
<path d="M 287 190.5 L 299.0 184.5 L 295.0 190.5 L 299.0 196.5 Z" fill="#35978f" stroke-width="0"/>
<circle cx="287" cy="81.5" r="2" stroke="#35978f" stroke-width="2" fill="#35978f"/>

<!-- Link from "id" (RESEARCH) to "id" (GENDER) -->
<path d="M287 98.5 C 319.0 77.0 308.333333333 55.5 351 55.5" fill="none" stroke="#35978f" stroke-width="2"/>
<path d="M 351 55.5 L 339.0 61.5 L 343.0 55.5 L 339.0 49.5 Z" fill="#35978f" stroke-width="0"/>
<circle cx="287" cy="98.5" r="2" stroke="#35978f" stroke-width="2" fill="#35978f"/>

<!-- Link from "id" (RESEARCH) to "id" (FLAW) -->
<path d="M205 115.5 C 168.0 81.5 180.333333333 47.5 131 47.5" fill="none" stroke="#35978f" stroke-width="2"/>
<path d="M 131 47.5 L 143.0 41.5 L 139.0 47.5 L 143.0 53.5 Z" fill="#35978f" stroke-width="0"/>
<circle cx="205" cy="115.5" r="2" stroke="#35978f" stroke-width="2" fill="#35978f"/>

<!-- Link from "id" (USER) to "id" (GENDER) -->
<path d="M287 360.5 C 319.0 208.0 308.333333333 55.5 351 55.5" fill="none" stroke="#35978f" stroke-width="2"/>
<path d="M 351 55.5 L 339.0 61.5 L 343.0 55.5 L 339.0 49.5 Z" fill="#35978f" stroke-width="0"/>
<circle cx="287" cy="360.5" r="2" stroke="#35978f" stroke-width="2" fill="#35978f"/>

<!-- Link from "id" (HAVE) to "id" (FLAW) -->
<path d="M141 266.5 C 195 157.0 185 47.5 131 47.5" fill="none" stroke="#35978f" stroke-width="2"/>
<path d="M 131 47.5 L 143.0 41.5 L 139.0 47.5 L 143.0 53.5 Z" fill="#35978f" stroke-width="0"/>
<circle cx="141" cy="266.5" r="2" stroke="#35978f" stroke-width="2" fill="#35978f"/>

<!-- Link from "id" (HAVE) to "id" (USER) -->
<path d="M141 283.5 C 173.0 237.0 162.333333333 190.5 205 190.5" fill="none" stroke="#35978f" stroke-width="2"/>
<path d="M 205 190.5 L 193.0 196.5 L 197.0 190.5 L 193.0 184.5 Z" fill="#35978f" stroke-width="0"/>
<circle cx="141" cy="283.5" r="2" stroke="#35978f" stroke-width="2" fill="#35978f"/>
</svg>