<?xml version="1.0" standalone="no"?>
<!DOCTYPE svg PUBLIC "-//W3C//DTD SVG 1.1//EN"
"http://www.w3.org/Graphics/SVG/1.1/DTD/svg11.dtd">

<svg width="566" height="490" view_box="0 0 566 490"
xmlns="http://www.w3.org/2000/svg"
xmlns:link="http://www.w3.org/1999/xlink">\n\n<desc>Généré par Mocodo 2.3.7 le Mon, 11 Jan 2021 08:19:09</desc>

<rect id="frame" x="0" y="0" width="566" height="490" fill="#ffffbf" stroke="none" stroke-width="0"/>

<!-- Entity CAN LIKE USER -->
<g id="entity-CAN LIKE USER">
	<g id="frame-CAN LIKE USER">
		<rect x="41" y="211" width="106" height="25" fill="#abdda4" stroke="#abdda4" stroke-width="0"/>
		<rect x="41" y="236.0" width="106" height="43" fill="#e6f598" stroke="#e6f598" stroke-width="0"/>
		<rect x="41" y="211" width="106" height="68" fill="none" stroke="#66c2a5" stroke-width="2"/>
		<line x1="41" y1="236" x2="147" y2="236" stroke="#66c2a5" stroke-width="1"/>
	</g>
	<text x="46" y="228.7" fill="#000000" font-family="Verdana" font-size="12">CAN LIKE USER</text>
	<text x="46" y="253.8" fill="#000000" font-family="Verdana" font-size="12">#user_id</text>
	<line x1="46" y1="256" x2="101" y2="256" stroke="#000000" stroke-width="1"/>
	<text x="46" y="270.8" fill="#000000" font-family="Verdana" font-size="12">#user_id</text>
	<line x1="46" y1="273" x2="101" y2="273" stroke="#000000" stroke-width="1"/>
</g>

<!-- Entity FLAW -->
<g id="entity-FLAW">
	<g id="frame-FLAW">
		<rect x="413" y="363" width="78" height="25" fill="#abdda4" stroke="#abdda4" stroke-width="0"/>
		<rect x="413" y="388.0" width="78" height="93" fill="#e6f598" stroke="#e6f598" stroke-width="0"/>
		<rect x="413" y="363" width="78" height="118" fill="none" stroke="#66c2a5" stroke-width="2"/>
		<line x1="413" y1="388" x2="491" y2="388" stroke="#66c2a5" stroke-width="1"/>
	</g>
	<text x="434" y="380.7" fill="#000000" font-family="Verdana" font-size="12">FLAW</text>
	<text x="418" y="405.7" fill="#000000" font-family="Verdana" font-size="12">id</text>
	<line x1="418" y1="408" x2="430" y2="408" stroke="#000000" stroke-width="1"/>
	<text x="418" y="422.8" fill="#000000" font-family="Verdana" font-size="12">name</text>
	<text x="418" y="439.8" fill="#000000" font-family="Verdana" font-size="12">description</text>
	<text x="418" y="456.8" fill="#000000" font-family="Verdana" font-size="12">image</text>
</g>

<!-- Entity GENDER -->
<g id="entity-GENDER">
	<g id="frame-GENDER">
		<rect x="55" y="9" width="78" height="25" fill="#abdda4" stroke="#abdda4" stroke-width="0"/>
		<rect x="55" y="34.0" width="78" height="93" fill="#e6f598" stroke="#e6f598" stroke-width="0"/>
		<rect x="55" y="9" width="78" height="118" fill="none" stroke="#66c2a5" stroke-width="2"/>
		<line x1="55" y1="34" x2="133" y2="34" stroke="#66c2a5" stroke-width="1"/>
	</g>
	<text x="68" y="26.7" fill="#000000" font-family="Verdana" font-size="12">GENDER</text>
	<text x="60" y="51.7" fill="#000000" font-family="Verdana" font-size="12">id</text>
	<line x1="60" y1="54" x2="72" y2="54" stroke="#000000" stroke-width="1"/>
	<text x="60" y="68.8" fill="#000000" font-family="Verdana" font-size="12">name</text>
	<text x="60" y="85.8" fill="#000000" font-family="Verdana" font-size="12">description</text>
	<text x="60" y="102.8" fill="#000000" font-family="Verdana" font-size="12">image</text>
</g>

<!-- Entity RESEARCH_GENDER -->
<g id="entity-RESEARCH_GENDER">
	<g id="frame-RESEARCH_GENDER">
		<rect x="211" y="26" width="136" height="25" fill="#abdda4" stroke="#abdda4" stroke-width="0"/>
		<rect x="211" y="51.0" width="136" height="59" fill="#e6f598" stroke="#e6f598" stroke-width="0"/>
		<rect x="211" y="26" width="136" height="84" fill="none" stroke="#66c2a5" stroke-width="2"/>
		<line x1="211" y1="51" x2="347" y2="51" stroke="#66c2a5" stroke-width="1"/>
	</g>
	<text x="216" y="43.7" fill="#000000" font-family="Verdana" font-size="12">RESEARCH_GENDER</text>
	<text x="216" y="68.8" fill="#000000" font-family="Verdana" font-size="12">#user_id</text>
	<line x1="216" y1="71" x2="271" y2="71" stroke="#000000" stroke-width="1"/>
	<text x="216" y="85.8" fill="#000000" font-family="Verdana" font-size="12">#gender_id</text>
	<line x1="216" y1="88" x2="287" y2="88" stroke="#000000" stroke-width="1"/>
</g>

<!-- Entity RESEARCH_FLAW -->
<g id="entity-RESEARCH_FLAW">
	<g id="frame-RESEARCH_FLAW">
		<rect x="220" y="380" width="118" height="25" fill="#abdda4" stroke="#abdda4" stroke-width="0"/>
		<rect x="220" y="405.0" width="118" height="59" fill="#e6f598" stroke="#e6f598" stroke-width="0"/>
		<rect x="220" y="380" width="118" height="84" fill="none" stroke="#66c2a5" stroke-width="2"/>
		<line x1="220" y1="405" x2="338" y2="405" stroke="#66c2a5" stroke-width="1"/>
	</g>
	<text x="225" y="397.7" fill="#000000" font-family="Verdana" font-size="12">RESEARCH_FLAW</text>
	<text x="225" y="422.8" fill="#000000" font-family="Verdana" font-size="12">#user_id</text>
	<line x1="225" y1="425" x2="280" y2="425" stroke="#000000" stroke-width="1"/>
	<text x="225" y="439.8" fill="#000000" font-family="Verdana" font-size="12">#flaw_id</text>
	<line x1="225" y1="442" x2="279" y2="442" stroke="#000000" stroke-width="1"/>
</g>

<!-- Entity USER -->
<g id="entity-USER">
	<g id="frame-USER">
		<rect x="238" y="135" width="82" height="25" fill="#abdda4" stroke="#abdda4" stroke-width="0"/>
		<rect x="238" y="160.0" width="82" height="195" fill="#e6f598" stroke="#e6f598" stroke-width="0"/>
		<rect x="238" y="135" width="82" height="220" fill="none" stroke="#66c2a5" stroke-width="2"/>
		<line x1="238" y1="160" x2="320" y2="160" stroke="#66c2a5" stroke-width="1"/>
	</g>
	<text x="262" y="152.7" fill="#000000" font-family="Verdana" font-size="12">USER</text>
	<text x="243" y="177.7" fill="#000000" font-family="Verdana" font-size="12">id</text>
	<line x1="243" y1="180" x2="255" y2="180" stroke="#000000" stroke-width="1"/>
	<text x="243" y="194.7" fill="#000000" font-family="Verdana" font-size="12">username</text>
	<text x="243" y="211.7" fill="#000000" font-family="Verdana" font-size="12">email</text>
	<text x="243" y="228.7" fill="#000000" font-family="Verdana" font-size="12">firstname</text>
	<text x="243" y="245.8" fill="#000000" font-family="Verdana" font-size="12">lastname</text>
	<text x="243" y="262.8" fill="#000000" font-family="Verdana" font-size="12">age</text>
	<text x="243" y="279.8" fill="#000000" font-family="Verdana" font-size="12">description</text>
	<text x="243" y="296.8" fill="#000000" font-family="Verdana" font-size="12">userImage</text>
	<text x="243" y="313.8" fill="#000000" font-family="Verdana" font-size="12">created_at</text>
	<text x="243" y="330.8" fill="#000000" font-family="Verdana" font-size="12">updated_at</text>
	<text x="243" y="347.8" fill="#000000" font-family="Verdana" font-size="12">#gender_id</text>
</g>

<!-- Entity HAVE FLAW -->
<g id="entity-HAVE FLAW">
	<g id="frame-HAVE FLAW">
		<rect x="411" y="211" width="82" height="25" fill="#abdda4" stroke="#abdda4" stroke-width="0"/>
		<rect x="411" y="236.0" width="82" height="43" fill="#e6f598" stroke="#e6f598" stroke-width="0"/>
		<rect x="411" y="211" width="82" height="68" fill="none" stroke="#66c2a5" stroke-width="2"/>
		<line x1="411" y1="236" x2="493" y2="236" stroke="#66c2a5" stroke-width="1"/>
	</g>
	<text x="416" y="228.7" fill="#000000" font-family="Verdana" font-size="12">HAVE FLAW</text>
	<text x="416" y="253.8" fill="#000000" font-family="Verdana" font-size="12">#flaw_id</text>
	<line x1="416" y1="256" x2="470" y2="256" stroke="#000000" stroke-width="1"/>
	<text x="416" y="270.8" fill="#000000" font-family="Verdana" font-size="12">#user_id</text>
	<line x1="416" y1="273" x2="471" y2="273" stroke="#000000" stroke-width="1"/>
</g>

<!-- Link from "id" (CAN LIKE USER) to "id" (USER) -->
<path d="M147 249.5 C 192.5 211.5 177.333333333 173.5 238 173.5" fill="none" stroke="#f46d43" stroke-width="2"/>
<path d="M 238 173.5 L 226.0 179.5 L 230.0 173.5 L 226.0 167.5 Z" fill="#f46d43" stroke-width="0"/>
<circle cx="147" cy="249.5" r="2" stroke="#f46d43" stroke-width="2" fill="#f46d43"/>

<!-- Link from "id" (CAN LIKE USER) to "id" (USER) -->
<path d="M147 266.5 C 192.5 220.0 177.333333333 173.5 238 173.5" fill="none" stroke="#f46d43" stroke-width="2"/>
<path d="M 238 173.5 L 226.0 179.5 L 230.0 173.5 L 226.0 167.5 Z" fill="#f46d43" stroke-width="0"/>
<circle cx="147" cy="266.5" r="2" stroke="#f46d43" stroke-width="2" fill="#f46d43"/>

<!-- Link from "id" (RESEARCH_GENDER) to "id" (USER) -->
<path d="M347 64.5 C 401 119.0 374 173.5 320 173.5" fill="none" stroke="#f46d43" stroke-width="2"/>
<path d="M 320 173.5 L 332.0 167.5 L 328.0 173.5 L 332.0 179.5 Z" fill="#f46d43" stroke-width="0"/>
<circle cx="347" cy="64.5" r="2" stroke="#f46d43" stroke-width="2" fill="#f46d43"/>

<!-- Link from "id" (RESEARCH_GENDER) to "id" (GENDER) -->
<path d="M211 81.5 C 172.0 64.5 185.0 47.5 133 47.5" fill="none" stroke="#f46d43" stroke-width="2"/>
<path d="M 133 47.5 L 145.0 41.5 L 141.0 47.5 L 145.0 53.5 Z" fill="#f46d43" stroke-width="0"/>
<circle cx="211" cy="81.5" r="2" stroke="#f46d43" stroke-width="2" fill="#f46d43"/>

<!-- Link from "id" (RESEARCH_FLAW) to "id" (USER) -->
<path d="M338 418.5 C 392 296.0 374 173.5 320 173.5" fill="none" stroke="#f46d43" stroke-width="2"/>
<path d="M 320 173.5 L 332.0 167.5 L 328.0 173.5 L 332.0 179.5 Z" fill="#f46d43" stroke-width="0"/>
<circle cx="338" cy="418.5" r="2" stroke="#f46d43" stroke-width="2" fill="#f46d43"/>

<!-- Link from "id" (RESEARCH_FLAW) to "id" (FLAW) -->
<path d="M338 435.5 C 375.5 418.5 363.0 401.5 413 401.5" fill="none" stroke="#f46d43" stroke-width="2"/>
<path d="M 413 401.5 L 401.0 407.5 L 405.0 401.5 L 401.0 395.5 Z" fill="#f46d43" stroke-width="0"/>
<circle cx="338" cy="435.5" r="2" stroke="#f46d43" stroke-width="2" fill="#f46d43"/>

<!-- Link from "id" (USER) to "id" (GENDER) -->
<path d="M238 343.5 C 185.5 195.5 203.0 47.5 133 47.5" fill="none" stroke="#f46d43" stroke-width="2"/>
<path d="M 133 47.5 L 145.0 41.5 L 141.0 47.5 L 145.0 53.5 Z" fill="#f46d43" stroke-width="0"/>
<circle cx="238" cy="343.5" r="2" stroke="#f46d43" stroke-width="2" fill="#f46d43"/>

<!-- Link from "id" (HAVE FLAW) to "id" (FLAW) -->
<path d="M493 249.5 C 547 325.5 545 401.5 491 401.5" fill="none" stroke="#f46d43" stroke-width="2"/>
<path d="M 491 401.5 L 503.0 395.5 L 499.0 401.5 L 503.0 407.5 Z" fill="#f46d43" stroke-width="0"/>
<circle cx="493" cy="249.5" r="2" stroke="#f46d43" stroke-width="2" fill="#f46d43"/>

<!-- Link from "id" (HAVE FLAW) to "id" (USER) -->
<path d="M411 266.5 C 365.5 220.0 380.666666667 173.5 320 173.5" fill="none" stroke="#f46d43" stroke-width="2"/>
<path d="M 320 173.5 L 332.0 167.5 L 328.0 173.5 L 332.0 179.5 Z" fill="#f46d43" stroke-width="0"/>
<circle cx="411" cy="266.5" r="2" stroke="#f46d43" stroke-width="2" fill="#f46d43"/>
</svg>