<?xml version="1.0" standalone="no"?>
<!DOCTYPE svg PUBLIC "-//W3C//DTD SVG 1.1//EN"
"http://www.w3.org/Graphics/SVG/1.1/DTD/svg11.dtd">

<svg width="472" height="390" view_box="0 0 472 390"
xmlns="http://www.w3.org/2000/svg"
xmlns:link="http://www.w3.org/1999/xlink">\n\n<desc>Généré par Mocodo 2.3.7 le Mon, 11 Jan 2021 06:19:34</desc>

<rect id="frame" x="0" y="0" width="472" height="390" fill="#f5f5f5" stroke="none" stroke-width="0"/>

<!-- Entity FLAW -->
<g id="entity-FLAW">
	<g id="frame-FLAW">
		<rect x="51" y="9" width="80" height="25" fill="#dfc27d" stroke="#dfc27d" stroke-width="0"/>
		<rect x="51" y="34.0" width="80" height="127" fill="#f6e8c3" stroke="#f6e8c3" stroke-width="0"/>
		<rect x="51" y="9" width="80" height="152" fill="none" stroke="#bf812d" stroke-width="2"/>
		<line x1="51" y1="34" x2="131" y2="34" stroke="#bf812d" stroke-width="1"/>
	</g>
	<text x="73" y="26.7" fill="#000000" font-family="Verdana" font-size="12">FLAW</text>
	<text x="56" y="51.7" fill="#000000" font-family="Verdana" font-size="12">id</text>
	<line x1="56" y1="54" x2="68" y2="54" stroke="#000000" stroke-width="1"/>
	<text x="56" y="68.7" fill="#000000" font-family="Verdana" font-size="12">name</text>
	<text x="56" y="85.8" fill="#000000" font-family="Verdana" font-size="12">description</text>
	<text x="56" y="102.8" fill="#000000" font-family="Verdana" font-size="12">image</text>
	<text x="56" y="119.8" fill="#000000" font-family="Verdana" font-size="12">created_at</text>
	<text x="56" y="136.8" fill="#000000" font-family="Verdana" font-size="12">updated_at</text>
</g>

<!-- Entity CAN LIKE -->
<g id="entity-CAN LIKE">
	<g id="frame-CAN LIKE">
		<rect x="357" y="229" width="68" height="25" fill="#dfc27d" stroke="#dfc27d" stroke-width="0"/>
		<rect x="357" y="254.0" width="68" height="59" fill="#f6e8c3" stroke="#f6e8c3" stroke-width="0"/>
		<rect x="357" y="229" width="68" height="84" fill="none" stroke="#bf812d" stroke-width="2"/>
		<line x1="357" y1="254" x2="425" y2="254" stroke="#bf812d" stroke-width="1"/>
	</g>
	<text x="362" y="246.7" fill="#000000" font-family="Verdana" font-size="12">CAN LIKE</text>
	<text x="362" y="271.8" fill="#000000" font-family="Verdana" font-size="12">id</text>
	<line x1="362" y1="274" x2="374" y2="274" stroke="#000000" stroke-width="1"/>
	<text x="362" y="288.8" fill="#000000" font-family="Verdana" font-size="12">#user_id</text>
	<text x="362" y="305.8" fill="#000000" font-family="Verdana" font-size="12">#user_id</text>
	<line x1="362" y1="308" x2="417" y2="308" stroke="#000000" stroke-width="1"/>
</g>

<!-- Entity GENDER -->
<g id="entity-GENDER">
	<g id="frame-GENDER">
		<rect x="351" y="17" width="80" height="25" fill="#dfc27d" stroke="#dfc27d" stroke-width="0"/>
		<rect x="351" y="42.0" width="80" height="111" fill="#f6e8c3" stroke="#f6e8c3" stroke-width="0"/>
		<rect x="351" y="17" width="80" height="136" fill="none" stroke="#bf812d" stroke-width="2"/>
		<line x1="351" y1="42" x2="431" y2="42" stroke="#bf812d" stroke-width="1"/>
	</g>
	<text x="365" y="34.7" fill="#000000" font-family="Verdana" font-size="12">GENDER</text>
	<text x="356" y="59.7" fill="#000000" font-family="Verdana" font-size="12">id</text>
	<line x1="356" y1="62" x2="368" y2="62" stroke="#000000" stroke-width="1"/>
	<text x="356" y="76.7" fill="#000000" font-family="Verdana" font-size="12">name</text>
	<text x="356" y="93.8" fill="#000000" font-family="Verdana" font-size="12">description</text>
	<text x="356" y="110.8" fill="#000000" font-family="Verdana" font-size="12">created_at</text>
	<text x="356" y="127.8" fill="#000000" font-family="Verdana" font-size="12">updated_at</text>
</g>

<!-- Entity RESEARCH -->
<g id="entity-RESEARCH">
	<g id="frame-RESEARCH">
		<rect x="205" y="34" width="82" height="25" fill="#dfc27d" stroke="#dfc27d" stroke-width="0"/>
		<rect x="205" y="59.0" width="82" height="77" fill="#f6e8c3" stroke="#f6e8c3" stroke-width="0"/>
		<rect x="205" y="34" width="82" height="102" fill="none" stroke="#bf812d" stroke-width="2"/>
		<line x1="205" y1="59" x2="287" y2="59" stroke="#bf812d" stroke-width="1"/>
	</g>
	<text x="212" y="51.7" fill="#000000" font-family="Verdana" font-size="12">RESEARCH</text>
	<text x="210" y="76.7" fill="#000000" font-family="Verdana" font-size="12">id</text>
	<line x1="210" y1="79" x2="222" y2="79" stroke="#000000" stroke-width="1"/>
	<text x="210" y="93.8" fill="#000000" font-family="Verdana" font-size="12">#user_id</text>
	<text x="210" y="110.8" fill="#000000" font-family="Verdana" font-size="12">#gender_id</text>
	<line x1="210" y1="113" x2="281" y2="113" stroke="#000000" stroke-width="1"/>
	<text x="210" y="127.8" fill="#000000" font-family="Verdana" font-size="12">#flaw_id</text>
	<line x1="210" y1="130" x2="264" y2="130" stroke="#000000" stroke-width="1"/>
</g>

<!-- Entity USER -->
<g id="entity-USER">
	<g id="frame-USER">
		<rect x="205" y="161" width="82" height="25" fill="#dfc27d" stroke="#dfc27d" stroke-width="0"/>
		<rect x="205" y="186.0" width="82" height="195" fill="#f6e8c3" stroke="#f6e8c3" stroke-width="0"/>
		<rect x="205" y="161" width="82" height="220" fill="none" stroke="#bf812d" stroke-width="2"/>
		<line x1="205" y1="186" x2="287" y2="186" stroke="#bf812d" stroke-width="1"/>
	</g>
	<text x="229" y="178.7" fill="#000000" font-family="Verdana" font-size="12">USER</text>
	<text x="210" y="203.7" fill="#000000" font-family="Verdana" font-size="12">id</text>
	<line x1="210" y1="206" x2="222" y2="206" stroke="#000000" stroke-width="1"/>
	<text x="210" y="220.7" fill="#000000" font-family="Verdana" font-size="12">username</text>
	<text x="210" y="237.7" fill="#000000" font-family="Verdana" font-size="12">email</text>
	<text x="210" y="254.7" fill="#000000" font-family="Verdana" font-size="12">firstname</text>
	<text x="210" y="271.8" fill="#000000" font-family="Verdana" font-size="12">lastname</text>
	<text x="210" y="288.8" fill="#000000" font-family="Verdana" font-size="12">age</text>
	<text x="210" y="305.8" fill="#000000" font-family="Verdana" font-size="12">description</text>
	<text x="210" y="322.8" fill="#000000" font-family="Verdana" font-size="12">userImage</text>
	<text x="210" y="339.8" fill="#000000" font-family="Verdana" font-size="12">created_at</text>
	<text x="210" y="356.8" fill="#000000" font-family="Verdana" font-size="12">updated_at</text>
	<text x="210" y="373.8" fill="#000000" font-family="Verdana" font-size="12">#gender_id</text>
</g>

<!-- Entity HAVE -->
<g id="entity-HAVE">
	<g id="frame-HAVE">
		<rect x="41" y="229" width="100" height="25" fill="#dfc27d" stroke="#dfc27d" stroke-width="0"/>
		<rect x="41" y="254.0" width="100" height="59" fill="#f6e8c3" stroke="#f6e8c3" stroke-width="0"/>
		<rect x="41" y="229" width="100" height="84" fill="none" stroke="#bf812d" stroke-width="2"/>
		<line x1="41" y1="254" x2="141" y2="254" stroke="#bf812d" stroke-width="1"/>
	</g>
	<text x="74" y="246.7" fill="#000000" font-family="Verdana" font-size="12">HAVE</text>
	<text x="46" y="271.8" fill="#000000" font-family="Verdana" font-size="12">id</text>
	<line x1="46" y1="274" x2="58" y2="274" stroke="#000000" stroke-width="1"/>
	<text x="46" y="288.8" fill="#000000" font-family="Verdana" font-size="12">#flaw_id</text>
	<text x="46" y="305.8" fill="#000000" font-family="Verdana" font-size="12">#username_id</text>
	<line x1="46" y1="308" x2="135" y2="308" stroke="#000000" stroke-width="1"/>
</g>

<!-- Link from "id" (CAN LIKE) to "id" (USER) -->
<path d="M357 284.5 C 322.0 242.0 333.666666667 199.5 287 199.5" fill="none" stroke="#35978f" stroke-width="2"/>
<path d="M 287 199.5 L 299.0 193.5 L 295.0 199.5 L 299.0 205.5 Z" fill="#35978f" stroke-width="0"/>
<circle cx="357" cy="284.5" r="2" stroke="#35978f" stroke-width="2" fill="#35978f"/>

<!-- Link from "id" (CAN LIKE) to "id" (USER) -->
<path d="M357 301.5 C 322.0 250.5 333.666666667 199.5 287 199.5" fill="none" stroke="#35978f" stroke-width="2"/>
<path d="M 287 199.5 L 299.0 193.5 L 295.0 199.5 L 299.0 205.5 Z" fill="#35978f" stroke-width="0"/>
<circle cx="357" cy="301.5" r="2" stroke="#35978f" stroke-width="2" fill="#35978f"/>

<!-- Link from "id" (RESEARCH) to "id" (USER) -->
<path d="M205 89.5 C 151 144.5 151 199.5 205 199.5" fill="none" stroke="#35978f" stroke-width="2"/>
<path d="M 205 199.5 L 193.0 205.5 L 197.0 199.5 L 193.0 193.5 Z" fill="#35978f" stroke-width="0"/>
<circle cx="205" cy="89.5" r="2" stroke="#35978f" stroke-width="2" fill="#35978f"/>

<!-- Link from "id" (RESEARCH) to "id" (GENDER) -->
<path d="M287 106.5 C 319.0 81.0 308.333333333 55.5 351 55.5" fill="none" stroke="#35978f" stroke-width="2"/>
<path d="M 351 55.5 L 339.0 61.5 L 343.0 55.5 L 339.0 49.5 Z" fill="#35978f" stroke-width="0"/>
<circle cx="287" cy="106.5" r="2" stroke="#35978f" stroke-width="2" fill="#35978f"/>

<!-- Link from "id" (RESEARCH) to "id" (FLAW) -->
<path d="M205 123.5 C 168.0 85.5 180.333333333 47.5 131 47.5" fill="none" stroke="#35978f" stroke-width="2"/>
<path d="M 131 47.5 L 143.0 41.5 L 139.0 47.5 L 143.0 53.5 Z" fill="#35978f" stroke-width="0"/>
<circle cx="205" cy="123.5" r="2" stroke="#35978f" stroke-width="2" fill="#35978f"/>

<!-- Link from "id" (USER) to "id" (GENDER) -->
<path d="M287 369.5 C 319.0 212.5 308.333333333 55.5 351 55.5" fill="none" stroke="#35978f" stroke-width="2"/>
<path d="M 351 55.5 L 339.0 61.5 L 343.0 55.5 L 339.0 49.5 Z" fill="#35978f" stroke-width="0"/>
<circle cx="287" cy="369.5" r="2" stroke="#35978f" stroke-width="2" fill="#35978f"/>

<!-- Link from "id" (HAVE) to "id" (FLAW) -->
<path d="M41 284.5 C -13 166.0 -3 47.5 51 47.5" fill="none" stroke="#35978f" stroke-width="2"/>
<path d="M 51 47.5 L 39.0 53.5 L 43.0 47.5 L 39.0 41.5 Z" fill="#35978f" stroke-width="0"/>
<circle cx="41" cy="284.5" r="2" stroke="#35978f" stroke-width="2" fill="#35978f"/>

<!-- Link from "id" (HAVE) to "id" (USER) -->
<path d="M141 301.5 C 173.0 250.5 162.333333333 199.5 205 199.5" fill="none" stroke="#35978f" stroke-width="2"/>
<path d="M 205 199.5 L 193.0 205.5 L 197.0 199.5 L 193.0 193.5 Z" fill="#35978f" stroke-width="0"/>
<circle cx="141" cy="301.5" r="2" stroke="#35978f" stroke-width="2" fill="#35978f"/>
</svg>